<?xml version="1.0" encoding="utf-8"?>
<!-- Generator: Adobe Illustrator 16.0.0, SVG Export Plug-In . SVG Version: 6.00 Build 0)  -->
<!DOCTYPE svg PUBLIC "-//W3C//DTD SVG 1.1//EN" "http://www.w3.org/Graphics/SVG/1.1/DTD/svg11.dtd">
<svg version="1.1" id="Layer_1" xmlns="http://www.w3.org/2000/svg" xmlns:xlink="http://www.w3.org/1999/xlink" x="0px" y="0px"
	 width="50px" height="35px" viewBox="0 0 50 35" enable-background="new 0 0 50 35" xml:space="preserve">
<path fill="#D3D3D3" d="M34.962,9.875c-1.305,1.388-2.607,2.836-3.781,4.224c-0.912,1.024-1.825,1.991-2.74,3.017
	c-0.39,0.362-1.173,0.966-1.173,1.389c0,0.36,0.652,0.844,0.913,1.206c0.913,0.965,1.826,1.931,2.606,2.896
	c1.305,1.508,2.738,3.017,4.042,4.524c0.652,0.725,3.13,0.422,2.478-0.302c-2.607-2.835-5.084-5.611-7.69-8.447
	c0.261,0.24-0.132,0.361,0.261,0.063c0.261-0.304,0.521-0.604,0.913-0.966c0.911-1.025,1.824-1.99,2.737-3.018
	c1.305-1.387,2.607-2.835,3.781-4.223C38.221,9.512,35.613,9.21,34.962,9.875L34.962,9.875z"/>
<path fill="#D3D3D3" d="M28.313,9.875c-1.304,1.388-2.607,2.836-3.781,4.224c-0.912,1.024-1.825,1.991-2.736,3.017
	c-0.395,0.422-1.176,0.966-1.176,1.389c0,0.36,0.652,0.844,0.912,1.206c0.914,0.965,1.824,1.931,2.607,2.896
	c1.305,1.508,2.739,3.017,4.042,4.524c0.652,0.725,3.13,0.422,2.479-0.302c-2.606-2.835-5.085-5.611-7.692-8.447
	c0.262,0.24-0.131,0.361,0.262,0.063c0.26-0.304,0.521-0.604,0.911-0.966c0.914-1.025,1.825-1.99,2.739-3.018
	c1.303-1.387,2.606-2.835,3.781-4.223C31.441,9.512,28.966,9.21,28.313,9.875L28.313,9.875z"/>
<path fill="#D3D3D3" d="M21.407,9.875c-1.303,1.388-2.606,2.836-3.78,4.224c-0.913,1.024-1.825,1.991-2.737,3.017
	c-0.393,0.422-1.174,0.966-1.174,1.389c0,0.36,0.652,0.844,0.911,1.206c0.914,0.965,1.825,1.931,2.608,2.896
	c1.303,1.508,2.737,3.017,4.041,4.524c0.652,0.725,3.131,0.422,2.479-0.302c-2.606-2.835-5.086-5.611-7.692-8.447
	c0.26,0.24-0.132,0.361,0.26,0.063c0.261-0.304,0.522-0.604,0.912-0.966c0.914-1.025,1.824-1.99,2.738-3.018
	c1.305-1.387,2.607-2.835,3.782-4.223C24.536,9.512,22.06,9.21,21.407,9.875L21.407,9.875z"/>
</svg>
